<?xml version="1.0" encoding="UTF-8" standalone="no"?> <svg id="Layer_1" data-name="Layer 1" xmlns="http://www.w3.org/2000/svg" viewBox="0 0 128 128"><defs><style>.cls-1{fill:#2d3e50;}</style></defs><title>x</title><path class="cls-1" d="M108.0671,1.32009H19.94395A6.38437,6.38437,0,0,0,13.55408,7.699V125.57536a1.09948,1.09948,0,0,0,1.57815.99327L64,102.83l48.86773,23.73862a1.097,1.097,0,0,0,1.57815-.99327V7.699A6.382,6.382,0,0,0,108.0671,1.32009ZM46.64023,75.306a1.3659,1.3659,0,0,1-1.35742,1.36846h-7.361A1.366,1.366,0,0,1,36.56428,75.306V52.10816a1.366,1.366,0,0,1,1.35748-1.36846h7.361a1.3659,1.3659,0,0,1,1.35742,1.36846Zm39.44294-1.1257a5.32909,5.32909,0,0,1-5.22,4.24893H64.39732a33.9235,33.9235,0,0,1-3.962-.23178l-3.76327-.41938s-6.20227-1.14773-6.32365-1.18087c-.04419-.011-.07726-.02209-.12145-.03307a1.78633,1.78633,0,0,1-1.236-1.6996V54.60232a1.81062,1.81062,0,0,1,.92706-1.55606v-.011a13.27227,13.27227,0,0,0,4.50267-4.4696L67.686,27.7074a4.92041,4.92041,0,0,1,9.182,1.45677,5.409,5.409,0,0,1,.07726.84973,4.19233,4.19233,0,0,1-.12138,1.04844c.011,0,.011,0,0,.011a3.13391,3.13391,0,0,1-.09935.40833l-.81666,2.59352-1.65541,5.34143-.5518,1.77679-.5739,1.832-.03307.11033H86.73433a5.15105,5.15105,0,0,1,4.71243,5.16488Z"/></svg>